<?xml version="1.0" standalone="no"?>
<!DOCTYPE svg PUBLIC "-//W3C//DTD SVG 20010904//EN"
 "http://www.w3.org/TR/2001/REC-SVG-20010904/DTD/svg10.dtd">
<svg version="1.0" xmlns="http://www.w3.org/2000/svg"
 width="300.000000pt" height="300.000000pt" viewBox="0 0 300.000000 300.000000"
 preserveAspectRatio="xMidYMid meet">
<metadata>
Created by potrace 1.11, written by Peter Selinger 2001-2013
</metadata>
<g transform="translate(0.000000,300.000000) scale(0.100000,-0.100000)"
fill="#000000" stroke="none">
<path d="M0 1500 l0 -1500 1500 0 1500 0 0 1500 0 1500 -1500 0 -1500 0 0
-1500z m1890 1117 c36 -10 107 -38 159 -63 75 -37 108 -61 170 -122 88 -87
119 -139 164 -267 30 -86 31 -97 32 -250 0 -179 -12 -239 -70 -360 -62 -129
-164 -229 -300 -295 -154 -74 -266 -90 -662 -90 l-273 0 0 -405 0 -405 -255 0
-255 0 0 1140 0 1141 613 -4 c540 -3 620 -5 677 -20z"/>
<path d="M1110 1910 l0 -340 238 0 c342 0 422 18 507 112 60 67 79 131 73 252
-7 141 -55 218 -168 270 -76 34 -186 46 -437 46 l-213 0 0 -340z"/>
</g>
</svg>
